<?xml version="1.0" standalone="no"?><!DOCTYPE svg PUBLIC "-//W3C//DTD SVG 1.1//EN" "http://www.w3.org/Graphics/SVG/1.1/DTD/svg11.dtd"><svg t="1728896648229" class="icon" viewBox="0 0 1024 1024" version="1.1" xmlns="http://www.w3.org/2000/svg" p-id="25171" xmlns:xlink="http://www.w3.org/1999/xlink" width="81" height="81"><path d="M979.030858 297.993675a255.404907 255.404907 0 0 0-255.404906-255.404907V0.063851A297.929824 297.929824 0 0 1 1021.619626 297.993675h-42.524917z m-182.614508 276.156555a146.027755 146.027755 0 0 1 24.518871 102.161963h-0.638512a421.418096 421.418096 0 0 1-303.037922 327.109834 397.15463 397.15463 0 0 1-503.594624-252.46775 403.475901 403.475901 0 0 1 294.928815-484.311555c6.065867-1.787834 12.195584-2.745603 18.261451-4.214181v-0.574661c4.469586-1.149322 8.875321-1.660132 13.281055-2.554049s9.258428-2.362495 13.855717-3.192561v0.574661a135.3646 135.3646 0 0 1 148.709506 66.724532 103.56669 103.56669 0 0 1 4.15033 66.405276 148.581804 148.581804 0 0 1 196.470224 32.564125 119.72105 119.72105 0 0 1-6.385122 120.040306 114.549101 114.549101 0 0 1 99.480211 31.670209z m-130.256502-130.384205c-23.497251-40.737083-92.073469-45.142817-153.242944-9.89694a191.55368 191.55368 0 0 0-22.411781 15.196592c-13.728014-12.323287-27.456027-24.071912-41.184041-35.37358a75.855257 75.855257 0 0 0 13.728014-73.556613c-36.650604-86.39071-262.300839 2.10709-143.026748-32.500274A361.334092 361.334092 0 0 0 53.443477 739.397205a355.587481 355.587481 0 0 0 452.066684 223.096185 381.064121 381.064121 0 0 0 270.984606-279.987628h-0.957768a78.026199 78.026199 0 0 0-10.343899-79.494778 98.90555 98.90555 0 0 0-123.296719 3.575669q-14.366526-17.431385-29.818522-34.86277a106.376144 106.376144 0 0 0 54.081989-128.021709z m-235.100217 484.566959a231.460697 231.460697 0 0 1-297.546716-135.109195 235.100216 235.100216 0 0 1 181.592888-274.241019 231.460697 231.460697 0 0 1 297.546717 135.109196 235.164068 235.164068 0 0 1-181.592889 274.177167z m142.005128-262.36469a190.404358 190.404358 0 0 0-246.018776-105.737631 193.405365 193.405365 0 0 0-153.242944 221.691458 190.404358 190.404358 0 0 0 246.018776 105.737632 193.405365 193.405365 0 0 0 153.242944-221.627608z m-233.887043 184.721599a74.833638 74.833638 0 0 1-90.987998-51.080982 76.046811 76.046811 0 0 1 73.620464-75.089042 74.833638 74.833638 0 0 1 90.987998 51.080981 75.98296 75.98296 0 0 1-73.620464 75.025191z m-11.557072-84.28362a37.289116 37.289116 0 0 0-38.310736 27.009069 36.842158 36.842158 0 0 0 44.057346 15.132741 37.416819 37.416819 0 0 0 38.310736-27.009069 36.842158 36.842158 0 0 0-44.057346-15.196592z m395.877605-596.0512V127.702453A170.22737 170.22737 0 0 1 893.917173 297.993675h-42.524917a127.702453 127.702453 0 0 0-127.766304-127.702454z" p-id="25172"></path></svg>